<?xml version="1.0" encoding="UTF-8"?>
<svg width="120px" height="120px" viewBox="0 0 120 120" version="1.1" xmlns="http://www.w3.org/2000/svg" xmlns:xlink="http://www.w3.org/1999/xlink">
    <!-- Generator: Sketch 41.2 (35397) - http://www.bohemiancoding.com/sketch -->
    <title>no connection</title>
    <desc>Created with Sketch.</desc>
    <defs></defs>
    <g id="kassa" stroke="none" stroke-width="1" fill="none" fill-rule="evenodd">
        <g id="1-copy-2у8-copy-copy-copy-copy-copy" transform="translate(-243.000000, -346.000000)" fill="#272527">
            <g id="Group-2" transform="translate(27.000000, 346.000000)">
                <g id="Group" transform="translate(216.000000, 0.000000)">
                    <path d="M26.9793101,16.2037268 C31.8092879,13.163335 37.5217591,11.4029591 43.6363636,11.4029591 C54.0818591,11.4029591 63.1725818,16.6579636 68.8636364,24.5279591 C71.5751318,23.21115 74.5295045,22.31205 77.7272727,22.31205 C88.9917,22.31205 98.1818182,31.5021682 98.1818182,42.7665955 C98.1818182,44.3955682 97.9488409,45.9345955 97.5852273,47.4540955 C108.785714,49.7196955 117.272727,59.5493182 117.272727,71.403 C117.272727,80.8735301 111.867633,89.1170644 103.983287,93.2077038 L99.8899877,89.1144044 C106.896838,86.2923192 111.818182,79.4432504 111.818182,71.403 C111.818182,61.2238636 103.897568,52.9606364 93.8778409,52.3546364 C93.0040283,52.2960587 92.21149,51.821456 91.7473284,51.0788028 C91.2831667,50.3361496 91.2038436,49.4157842 91.5340909,48.6046636 C92.2956273,46.8042 92.7272727,44.8359818 92.7272727,42.7665955 C92.7272727,34.4500227 86.0438455,27.7665955 77.7272727,27.7665955 C74.6973,27.7665955 71.8919727,28.6250318 69.5454545,30.1529591 C68.9277823,30.5624481 68.1700765,30.7029748 67.4466433,30.5422119 C66.7232101,30.381449 66.0963351,29.9332376 65.7102273,29.3006864 C61.1555727,21.8388 53.02455,16.8575045 43.6363636,16.8575045 C39.0180666,16.8575045 34.6874211,18.0570522 30.938079,20.1624957 L26.9793101,16.2037268 Z M22.5938393,19.5321482 C16.2586416,25.2753502 12.2727273,33.5657097 12.2727273,42.7665955 C12.2727273,44.4708955 12.5213045,46.0848 12.7840909,47.7097773 C6.70809545,52.713 2.72727273,60.2046818 2.72727273,68.6757273 C2.72727273,83.7057273 14.9699864,95.9484545 30,95.9484545 L92.7272727,95.9484545 C94.6635827,95.9484545 96.5485994,95.7225094 98.3573168,95.2956257 L93.5388236,90.4771324 C93.2697421,90.4882803 92.9991886,90.4939091 92.7272727,90.4939091 L30,90.4939091 C17.9178409,90.4939091 8.18181818,80.7578182 8.18181818,68.6757273 C8.18181818,61.3858636 11.7810409,54.9163636 17.2585227,50.9484545 C18.1288253,50.3160417 18.54609,49.2311373 18.3238636,48.1785273 C17.9465727,46.4158636 17.7272727,44.6358136 17.7272727,42.7665955 C17.7272727,35.0363787 21.0880297,28.1120717 26.4324546,23.3707635 L22.5938393,19.5321482 Z" id="Combined-Shape"></path>
                    <path d="M3.79879969,7.903859 L111.984307,116.089366 C113.049373,117.154433 114.776187,117.154433 115.841253,116.089366 C116.906319,115.0243 116.906319,113.297487 115.841253,112.23242 L7.65574577,4.04691292 C6.59067952,2.98184667 4.86386594,2.98184667 3.79879969,4.04691292 C2.73373344,5.11197917 2.73373344,6.83879275 3.79879969,7.903859 Z" id="Path-2-Copy"></path>
                </g>
            </g>
        </g>
    </g>
</svg>