<?xml version="1.0" encoding="UTF-8"?>
<svg width="121px" height="121px" viewBox="0 0 121 121" version="1.1" xmlns="http://www.w3.org/2000/svg" xmlns:xlink="http://www.w3.org/1999/xlink">
    <!-- Generator: Sketch 41.2 (35397) - http://www.bohemiancoding.com/sketch -->
    <title>link was sent</title>
    <desc>Created with Sketch.</desc>
    <defs></defs>
    <g id="kassa" stroke="none" stroke-width="1" fill="none" fill-rule="evenodd">
        <g id="1-copуy-27-copy-13" transform="translate(-23.000000, -169.000000)">
            <g id="Group-2" transform="translate(22.400575, 169.330388)">
                <g id="icon/success-payment" transform="translate(-0.000000, 0.000000)">
                    <path d="M56.4793186,69.2203051 C55.7119333,69.2676131 54.9281147,69.004786 54.3359696,68.4298235 L36.0691383,50.6930503 C34.961052,49.6171179 34.9437774,47.8555847 36.0305543,46.7585557 C37.1173312,45.6615266 38.8966193,45.6444244 40.0047055,46.7203567 L56.4619018,62.700006 L84.1758274,35.2626279 C85.2733107,34.176096 87.0526827,34.176096 88.150166,35.2626279 C89.2476493,36.3491598 89.2476493,38.110776 88.150166,39.1973079 L58.6422077,68.4108167 C58.0487527,68.9983498 57.2559124,69.2681793 56.4793186,69.2203051 Z" id="Combined-Shape" fill="#67A420"></path>
                    <path d="M112.787927,10.1589887 L10.0068474,10.1589887 C5.70004685,10.1589887 2.19737974,13.6616558 2.19737974,17.9684563 L2.19737974,86.2211316 C2.19737974,90.5229989 5.70004685,94.025666 10.0068474,94.025666 L56.4640533,94.025666 L56.4640533,103.892334 L26.8640495,103.892334 C25.5024494,103.892334 24.3973825,104.997401 24.3973825,106.359001 C24.3973825,107.720601 25.5024494,108.825668 26.8640495,108.825668 L95.9307249,108.825668 C97.2923251,108.825668 98.3973919,107.720601 98.3973919,106.359001 C98.3973919,104.997401 97.2923251,103.892334 95.9307249,103.892334 L61.3973872,103.892334 L61.3973872,94.025666 L112.787927,94.025666 C117.094728,94.025666 120.597395,90.5229989 120.597395,86.2161983 L120.597395,17.9684563 C120.597395,13.6616558 117.094728,10.1589887 112.787927,10.1589887 Z M115.664061,86.2161983 C115.664061,87.8047318 114.376461,89.092332 112.787927,89.092332 L10.0068474,89.092332 C8.41831386,89.092332 7.1307137,87.8047318 7.1307137,86.2161983 L7.1307137,17.9684563 C7.1307137,16.3799228 8.41831386,15.0923226 10.0068474,15.0923226 L112.79286,15.0923226 C114.376461,15.0923226 115.664061,16.3799228 115.664061,17.9684563 L115.664061,86.2161983 Z" id="Shape" fill="#272527"></path>
                </g>
            </g>
        </g>
    </g>
</svg>